<svg xmlns="http://www.w3.org/2000/svg" width="1100" height="650" viewBox="0 0 1100 650" role="img" aria-labelledby="title"><title>Listing Snapshot Coverage by City</title><style>text { font-family: Arial, Helvetica, sans-serif; fill: #111827; }.title { font-size: 24px; font-weight: 700; }.axis-label { font-size: 13px; font-weight: 600; }.tick { font-size: 12px; }.value { font-size: 12px; font-weight: 600; }.legend { font-size: 11px; }</style><rect x="0" y="0" width="1100" height="650" fill="#FBFCFE" /><text x="550.00" y="45.00" text-anchor="middle" fill="#111827" class="title">Listing Snapshot Coverage by City</text><text x="28.00" y="315.00" text-anchor="middle" fill="#111827" class="axis-label" transform="rotate(-90.00 28.00 315.00)">Listing snapshot rows</text><line x1="90.00" y1="530.00" x2="1050.00" y2="530.00" stroke="#E2E8F0" stroke-width="1.00" stroke-dasharray="4 4" /><text x="78.00" y="534.00" text-anchor="end" fill="#111827" class="tick">0</text><line x1="90.00" y1="422.50" x2="1050.00" y2="422.50" stroke="#E2E8F0" stroke-width="1.00" stroke-dasharray="4 4" /><text x="78.00" y="426.50" text-anchor="end" fill="#111827" class="tick">50,000</text><line x1="90.00" y1="315.00" x2="1050.00" y2="315.00" stroke="#E2E8F0" stroke-width="1.00" stroke-dasharray="4 4" /><text x="78.00" y="319.00" text-anchor="end" fill="#111827" class="tick">100,000</text><line x1="90.00" y1="207.50" x2="1050.00" y2="207.50" stroke="#E2E8F0" stroke-width="1.00" stroke-dasharray="4 4" /><text x="78.00" y="211.50" text-anchor="end" fill="#111827" class="tick">150,000</text><line x1="90.00" y1="100.00" x2="1050.00" y2="100.00" stroke="#E2E8F0" stroke-width="1.00" stroke-dasharray="4 4" /><text x="78.00" y="104.00" text-anchor="end" fill="#111827" class="tick">200,000</text><line x1="90.00" y1="100.00" x2="90.00" y2="530.00" stroke="#CBD5E1" stroke-width="1.50" /><line x1="90.00" y1="530.00" x2="1050.00" y2="530.00" stroke="#CBD5E1" stroke-width="1.50" /><rect x="126.48" y="304.29" width="119.04" height="225.71" fill="#0F766E" stroke="none" /><text x="186.00" y="296.29" text-anchor="middle" fill="#111827" class="value">104,981</text><text x="186.00" y="558.00" text-anchor="middle" fill="#111827" class="tick">Roma</text><rect x="318.48" y="366.84" width="119.04" height="163.16" fill="#0F766E" stroke="none" /><text x="378.00" y="358.84" text-anchor="middle" fill="#111827" class="value">75,889</text><text x="378.00" y="558.00" text-anchor="middle" fill="#111827" class="tick">Milano</text><rect x="510.48" y="441.33" width="119.04" height="88.67" fill="#0F766E" stroke="none" /><text x="570.00" y="433.33" text-anchor="middle" fill="#111827" class="value">41,243</text><text x="570.00" y="558.00" text-anchor="middle" fill="#111827" class="tick">Firenze</text><rect x="702.48" y="462.73" width="119.04" height="67.27" fill="#0F766E" stroke="none" /><text x="762.00" y="454.73" text-anchor="middle" fill="#111827" class="value">31,287</text><text x="762.00" y="558.00" text-anchor="middle" fill="#111827" class="tick">Napoli</text><rect x="894.48" y="468.41" width="119.04" height="61.59" fill="#0F766E" stroke="none" /><text x="954.00" y="460.41" text-anchor="middle" fill="#111827" class="value">28,647</text><text x="954.00" y="558.00" text-anchor="middle" fill="#111827" class="tick">Venezia</text></svg>