<svg xmlns="http://www.w3.org/2000/svg" width="1200" height="680" viewBox="0 0 1200 680" role="img" aria-labelledby="title"><title>Listing Snapshot Coverage by City and Period</title><style>text { font-family: Arial, Helvetica, sans-serif; fill: #17324D; }.title { font-size: 28px; font-weight: 700; }.axis-label { font-size: 16px; font-weight: 600; }.tick { font-size: 13px; }.value { font-size: 12px; font-weight: 600; }.legend { font-size: 13px; }</style><rect x="0" y="0" width="1200" height="680" fill="#FFFFFF" /><text x="600.00" y="45.00" text-anchor="middle" fill="#17324D" class="title">Listing Snapshot Coverage by City and Period</text><text x="28.00" y="325.00" text-anchor="middle" fill="#17324D" class="axis-label" transform="rotate(-90.00 28.00 325.00)">Listing snapshot rows</text><line x1="90.00" y1="550.00" x2="1150.00" y2="550.00" stroke="#D7DEE6" stroke-width="1.00" stroke-dasharray="4 4" /><text x="78.00" y="554.00" text-anchor="end" fill="#17324D" class="tick">0</text><line x1="90.00" y1="437.50" x2="1150.00" y2="437.50" stroke="#D7DEE6" stroke-width="1.00" stroke-dasharray="4 4" /><text x="78.00" y="441.50" text-anchor="end" fill="#17324D" class="tick">12,500</text><line x1="90.00" y1="325.00" x2="1150.00" y2="325.00" stroke="#D7DEE6" stroke-width="1.00" stroke-dasharray="4 4" /><text x="78.00" y="329.00" text-anchor="end" fill="#17324D" class="tick">25,000</text><line x1="90.00" y1="212.50" x2="1150.00" y2="212.50" stroke="#D7DEE6" stroke-width="1.00" stroke-dasharray="4 4" /><text x="78.00" y="216.50" text-anchor="end" fill="#17324D" class="tick">37,500</text><line x1="90.00" y1="100.00" x2="1150.00" y2="100.00" stroke="#D7DEE6" stroke-width="1.00" stroke-dasharray="4 4" /><text x="78.00" y="104.00" text-anchor="end" fill="#17324D" class="tick">50,000</text><line x1="90.00" y1="100.00" x2="90.00" y2="550.00" stroke="#17324D" stroke-width="1.50" /><line x1="90.00" y1="550.00" x2="1150.00" y2="550.00" stroke="#17324D" stroke-width="1.50" /><rect x="910.00" y="62.00" width="14.00" height="14.00" fill="#1F567D" stroke="none" /><text x="932.00" y="74.00" text-anchor="start" fill="#17324D" class="legend">Early Spring</text><rect x="1030.00" y="62.00" width="14.00" height="14.00" fill="#2A9D8F" stroke="none" /><text x="1052.00" y="74.00" text-anchor="start" fill="#17324D" class="legend">Early Summer</text><rect x="910.00" y="84.00" width="14.00" height="14.00" fill="#F4A261" stroke="none" /><text x="932.00" y="96.00" text-anchor="start" fill="#17324D" class="legend">Early Autumn</text><rect x="1030.00" y="84.00" width="14.00" height="14.00" fill="#E76F51" stroke="none" /><text x="1052.00" y="96.00" text-anchor="start" fill="#17324D" class="legend">Early Winter</text><rect x="111.20" y="463.75" width="39.40" height="86.25" fill="#1F567D" stroke="none" /><rect x="153.60" y="458.22" width="39.40" height="91.78" fill="#2A9D8F" stroke="none" /><rect x="196.00" y="454.59" width="39.40" height="95.41" fill="#F4A261" stroke="none" /><rect x="238.40" y="452.25" width="39.40" height="97.75" fill="#E76F51" stroke="none" /><text x="196.00" y="578.00" text-anchor="middle" fill="#17324D" class="tick">Firenze</text><rect x="323.20" y="390.75" width="39.40" height="159.25" fill="#1F567D" stroke="none" /><rect x="365.60" y="375.85" width="39.40" height="174.15" fill="#2A9D8F" stroke="none" /><rect x="408.00" y="379.37" width="39.40" height="170.63" fill="#F4A261" stroke="none" /><rect x="450.40" y="371.03" width="39.40" height="178.97" fill="#E76F51" stroke="none" /><text x="408.00" y="578.00" text-anchor="middle" fill="#17324D" class="tick">Milano</text><rect x="535.20" y="483.73" width="39.40" height="66.27" fill="#1F567D" stroke="none" /><rect x="577.60" y="478.66" width="39.40" height="71.34" fill="#2A9D8F" stroke="none" /><rect x="620.00" y="476.35" width="39.40" height="73.65" fill="#F4A261" stroke="none" /><rect x="662.40" y="479.67" width="39.40" height="70.33" fill="#E76F51" stroke="none" /><text x="620.00" y="578.00" text-anchor="middle" fill="#17324D" class="tick">Napoli</text><rect x="747.20" y="323.40" width="39.40" height="226.60" fill="#1F567D" stroke="none" /><rect x="789.60" y="303.03" width="39.40" height="246.97" fill="#2A9D8F" stroke="none" /><rect x="832.00" y="301.83" width="39.40" height="248.17" fill="#F4A261" stroke="none" /><rect x="874.40" y="326.92" width="39.40" height="223.08" fill="#E76F51" stroke="none" /><text x="832.00" y="578.00" text-anchor="middle" fill="#17324D" class="tick">Roma</text><rect x="959.20" y="486.84" width="39.40" height="63.16" fill="#1F567D" stroke="none" /><rect x="1001.60" y="484.58" width="39.40" height="65.42" fill="#2A9D8F" stroke="none" /><rect x="1044.00" y="484.68" width="39.40" height="65.32" fill="#F4A261" stroke="none" /><rect x="1086.40" y="486.08" width="39.40" height="63.92" fill="#E76F51" stroke="none" /><text x="1044.00" y="578.00" text-anchor="middle" fill="#17324D" class="tick">Venezia</text></svg>