<svg xmlns="http://www.w3.org/2000/svg" width="1080" height="520" viewBox="0 0 1080 520" role="img" aria-labelledby="title"><title>Median Nightly Price by City and Period</title><style>text { font-family: Arial, Helvetica, sans-serif; fill: #111827; }.title { font-size: 24px; font-weight: 700; }.axis-label { font-size: 13px; font-weight: 600; }.tick { font-size: 12px; }.value { font-size: 12px; font-weight: 600; }.legend { font-size: 11px; }</style><rect x="0" y="0" width="1080" height="520" fill="#FBFCFE" /><text x="540.00" y="45.00" text-anchor="middle" fill="#111827" class="title">Median Nightly Price by City and Period</text><text x="168.00" y="146.00" text-anchor="end" fill="#111827" class="tick">Venezia</text><text x="168.00" y="210.00" text-anchor="end" fill="#111827" class="tick">Firenze</text><text x="168.00" y="274.00" text-anchor="end" fill="#111827" class="tick">Roma</text><text x="168.00" y="338.00" text-anchor="end" fill="#111827" class="tick">Milano</text><text x="168.00" y="402.00" text-anchor="end" fill="#111827" class="tick">Napoli</text><text x="278.75" y="96.00" text-anchor="middle" fill="#111827" class="tick" transform="rotate(-24.00 278.75 96.00)">Early Spring</text><text x="476.25" y="96.00" text-anchor="middle" fill="#111827" class="tick" transform="rotate(-24.00 476.25 96.00)">Early Summer</text><text x="673.75" y="96.00" text-anchor="middle" fill="#111827" class="tick" transform="rotate(-24.00 673.75 96.00)">Early Autumn</text><text x="871.25" y="96.00" text-anchor="middle" fill="#111827" class="tick" transform="rotate(-24.00 871.25 96.00)">Early Winter</text><rect x="180.00" y="110.00" width="195.50" height="62.00" fill="#6797EC" stroke="none" /><text x="278.75" y="147.00" text-anchor="middle" fill="#111827" class="value">139</text><rect x="377.50" y="110.00" width="195.50" height="62.00" fill="#2F6BEB" stroke="none" /><text x="476.25" y="147.00" text-anchor="middle" fill="#111827" class="value">165</text><rect x="575.00" y="110.00" width="195.50" height="62.00" fill="#2563EB" stroke="none" /><text x="673.75" y="147.00" text-anchor="middle" fill="#111827" class="value">170</text><rect x="772.50" y="110.00" width="195.50" height="62.00" fill="#81ACEC" stroke="none" /><text x="871.25" y="147.00" text-anchor="middle" fill="#111827" class="value">126</text><rect x="180.00" y="174.00" width="195.50" height="62.00" fill="#7AA6EC" stroke="none" /><text x="278.75" y="211.00" text-anchor="middle" fill="#111827" class="value">130</text><rect x="377.50" y="174.00" width="195.50" height="62.00" fill="#4F84EB" stroke="none" /><text x="476.25" y="211.00" text-anchor="middle" fill="#111827" class="value">150</text><rect x="575.00" y="174.00" width="195.50" height="62.00" fill="#4F84EB" stroke="none" /><text x="673.75" y="211.00" text-anchor="middle" fill="#111827" class="value">150</text><rect x="772.50" y="174.00" width="195.50" height="62.00" fill="#9ABFEC" stroke="none" /><text x="871.25" y="211.00" text-anchor="middle" fill="#111827" class="value">115</text><rect x="180.00" y="238.00" width="195.50" height="62.00" fill="#89B2EC" stroke="none" /><text x="278.75" y="275.00" text-anchor="middle" fill="#111827" class="value">123</text><rect x="377.50" y="238.00" width="195.50" height="62.00" fill="#5E90EB" stroke="none" /><text x="476.25" y="275.00" text-anchor="middle" fill="#111827" class="value">143</text><rect x="575.00" y="238.00" width="195.50" height="62.00" fill="#6495EC" stroke="none" /><text x="673.75" y="275.00" text-anchor="middle" fill="#111827" class="value">140</text><rect x="772.50" y="238.00" width="195.50" height="62.00" fill="#B3D4ED" stroke="none" /><text x="871.25" y="275.00" text-anchor="middle" fill="#111827" class="value">103</text><rect x="180.00" y="302.00" width="195.50" height="62.00" fill="#BAD9ED" stroke="none" /><text x="278.75" y="339.00" text-anchor="middle" fill="#111827" class="value">100</text><rect x="377.50" y="302.00" width="195.50" height="62.00" fill="#AFD0ED" stroke="none" /><text x="476.25" y="339.00" text-anchor="middle" fill="#111827" class="value">105</text><rect x="575.00" y="302.00" width="195.50" height="62.00" fill="#8FB7EC" stroke="none" /><text x="673.75" y="339.00" text-anchor="middle" fill="#111827" class="value">120</text><rect x="772.50" y="302.00" width="195.50" height="62.00" fill="#BAD9ED" stroke="none" /><text x="871.25" y="339.00" text-anchor="middle" fill="#111827" class="value">100</text><rect x="180.00" y="366.00" width="195.50" height="62.00" fill="#D8F1EE" stroke="none" /><text x="278.75" y="403.00" text-anchor="middle" fill="#111827" class="value">86</text><rect x="377.50" y="366.00" width="195.50" height="62.00" fill="#D5EFED" stroke="none" /><text x="476.25" y="403.00" text-anchor="middle" fill="#111827" class="value">87</text><rect x="575.00" y="366.00" width="195.50" height="62.00" fill="#D8F1EE" stroke="none" /><text x="673.75" y="403.00" text-anchor="middle" fill="#111827" class="value">86</text><rect x="772.50" y="366.00" width="195.50" height="62.00" fill="#D8F1EE" stroke="none" /><text x="871.25" y="403.00" text-anchor="middle" fill="#111827" class="value">86</text><rect x="1000.00" y="403.33" width="20.00" height="26.67" fill="#D8F1EE" stroke="none" /><rect x="1000.00" y="376.67" width="20.00" height="26.67" fill="#C7E4ED" stroke="none" /><rect x="1000.00" y="350.00" width="20.00" height="26.67" fill="#B7D7ED" stroke="none" /><rect x="1000.00" y="323.33" width="20.00" height="26.67" fill="#A7CAED" stroke="none" /><rect x="1000.00" y="296.67" width="20.00" height="26.67" fill="#96BDEC" stroke="none" /><rect x="1000.00" y="270.00" width="20.00" height="26.67" fill="#86B0EC" stroke="none" /><rect x="1000.00" y="243.33" width="20.00" height="26.67" fill="#76A3EC" stroke="none" /><rect x="1000.00" y="216.67" width="20.00" height="26.67" fill="#6696EC" stroke="none" /><rect x="1000.00" y="190.00" width="20.00" height="26.67" fill="#5589EB" stroke="none" /><rect x="1000.00" y="163.33" width="20.00" height="26.67" fill="#457CEB" stroke="none" /><rect x="1000.00" y="136.67" width="20.00" height="26.67" fill="#356FEB" stroke="none" /><rect x="1000.00" y="110.00" width="20.00" height="26.67" fill="#2563EB" stroke="none" /><text x="1010.00" y="98.00" text-anchor="middle" fill="#111827" class="legend">Price</text><text x="1028.00" y="114.00" text-anchor="start" fill="#111827" class="tick">EUR 170</text><text x="1028.00" y="430.00" text-anchor="start" fill="#111827" class="tick">EUR 86</text></svg>