<svg xmlns="http://www.w3.org/2000/svg" width="1100" height="650" viewBox="0 0 1100 650" role="img" aria-labelledby="title"><title>Median Nightly Price by City</title><style>text { font-family: Arial, Helvetica, sans-serif; fill: #17324D; }.title { font-size: 28px; font-weight: 700; }.axis-label { font-size: 16px; font-weight: 600; }.tick { font-size: 13px; }.value { font-size: 12px; font-weight: 600; }.legend { font-size: 13px; }</style><rect x="0" y="0" width="1100" height="650" fill="#FFFFFF" /><text x="550.00" y="45.00" text-anchor="middle" fill="#17324D" class="title">Median Nightly Price by City</text><text x="28.00" y="315.00" text-anchor="middle" fill="#17324D" class="axis-label" transform="rotate(-90.00 28.00 315.00)">Median nightly price</text><line x1="90.00" y1="530.00" x2="1050.00" y2="530.00" stroke="#D7DEE6" stroke-width="1.00" stroke-dasharray="4 4" /><text x="78.00" y="534.00" text-anchor="end" fill="#17324D" class="tick">EUR 0</text><line x1="90.00" y1="422.50" x2="1050.00" y2="422.50" stroke="#D7DEE6" stroke-width="1.00" stroke-dasharray="4 4" /><text x="78.00" y="426.50" text-anchor="end" fill="#17324D" class="tick">EUR 50</text><line x1="90.00" y1="315.00" x2="1050.00" y2="315.00" stroke="#D7DEE6" stroke-width="1.00" stroke-dasharray="4 4" /><text x="78.00" y="319.00" text-anchor="end" fill="#17324D" class="tick">EUR 100</text><line x1="90.00" y1="207.50" x2="1050.00" y2="207.50" stroke="#D7DEE6" stroke-width="1.00" stroke-dasharray="4 4" /><text x="78.00" y="211.50" text-anchor="end" fill="#17324D" class="tick">EUR 150</text><line x1="90.00" y1="100.00" x2="1050.00" y2="100.00" stroke="#D7DEE6" stroke-width="1.00" stroke-dasharray="4 4" /><text x="78.00" y="104.00" text-anchor="end" fill="#17324D" class="tick">EUR 200</text><line x1="90.00" y1="100.00" x2="90.00" y2="530.00" stroke="#17324D" stroke-width="1.50" /><line x1="90.00" y1="530.00" x2="1050.00" y2="530.00" stroke="#17324D" stroke-width="1.50" /><rect x="126.48" y="201.05" width="119.04" height="328.95" fill="#2A9D8F" stroke="none" /><text x="186.00" y="193.05" text-anchor="middle" fill="#17324D" class="value">EUR 153</text><text x="186.00" y="558.00" text-anchor="middle" fill="#17324D" class="tick">Venezia</text><rect x="318.48" y="237.60" width="119.04" height="292.40" fill="#2A9D8F" stroke="none" /><text x="378.00" y="229.60" text-anchor="middle" fill="#17324D" class="value">EUR 136</text><text x="378.00" y="558.00" text-anchor="middle" fill="#17324D" class="tick">Firenze</text><rect x="510.48" y="256.95" width="119.04" height="273.05" fill="#2A9D8F" stroke="none" /><text x="570.00" y="248.95" text-anchor="middle" fill="#17324D" class="value">EUR 127</text><text x="570.00" y="558.00" text-anchor="middle" fill="#17324D" class="tick">Roma</text><rect x="702.48" y="299.95" width="119.04" height="230.05" fill="#2A9D8F" stroke="none" /><text x="762.00" y="291.95" text-anchor="middle" fill="#17324D" class="value">EUR 107</text><text x="762.00" y="558.00" text-anchor="middle" fill="#17324D" class="tick">Milano</text><rect x="894.48" y="345.10" width="119.04" height="184.90" fill="#2A9D8F" stroke="none" /><text x="954.00" y="337.10" text-anchor="middle" fill="#17324D" class="value">EUR 86</text><text x="954.00" y="558.00" text-anchor="middle" fill="#17324D" class="tick">Napoli</text></svg>