<svg xmlns="http://www.w3.org/2000/svg" width="1080" height="520" viewBox="0 0 1080 520" role="img" aria-labelledby="title"><title>Median Nightly Price by City and Period</title><style>text { font-family: Arial, Helvetica, sans-serif; fill: #17324D; }.title { font-size: 28px; font-weight: 700; }.axis-label { font-size: 16px; font-weight: 600; }.tick { font-size: 13px; }.value { font-size: 12px; font-weight: 600; }.legend { font-size: 13px; }</style><rect x="0" y="0" width="1080" height="520" fill="#FFFFFF" /><text x="540.00" y="45.00" text-anchor="middle" fill="#17324D" class="title">Median Nightly Price by City and Period</text><text x="168.00" y="146.00" text-anchor="end" fill="#17324D" class="tick">Venezia</text><text x="168.00" y="210.00" text-anchor="end" fill="#17324D" class="tick">Firenze</text><text x="168.00" y="274.00" text-anchor="end" fill="#17324D" class="tick">Roma</text><text x="168.00" y="338.00" text-anchor="end" fill="#17324D" class="tick">Milano</text><text x="168.00" y="402.00" text-anchor="end" fill="#17324D" class="tick">Napoli</text><text x="278.75" y="96.00" text-anchor="middle" fill="#17324D" class="tick" transform="rotate(-24.00 278.75 96.00)">Early Spring</text><text x="476.25" y="96.00" text-anchor="middle" fill="#17324D" class="tick" transform="rotate(-24.00 476.25 96.00)">Early Summer</text><text x="673.75" y="96.00" text-anchor="middle" fill="#17324D" class="tick" transform="rotate(-24.00 673.75 96.00)">Early Autumn</text><text x="871.25" y="96.00" text-anchor="middle" fill="#17324D" class="tick" transform="rotate(-24.00 871.25 96.00)">Early Winter</text><rect x="180.00" y="110.00" width="195.50" height="62.00" fill="#75A2AC" stroke="none" /><text x="278.75" y="147.00" text-anchor="middle" fill="#17324D" class="value">139</text><rect x="377.50" y="110.00" width="195.50" height="62.00" fill="#3781B4" stroke="none" /><text x="476.25" y="147.00" text-anchor="middle" fill="#17324D" class="value">165</text><rect x="575.00" y="110.00" width="195.50" height="62.00" fill="#2C7BB6" stroke="none" /><text x="673.75" y="147.00" text-anchor="middle" fill="#17324D" class="value">170</text><rect x="772.50" y="110.00" width="195.50" height="62.00" fill="#93B2A8" stroke="none" /><text x="871.25" y="147.00" text-anchor="middle" fill="#17324D" class="value">126</text><rect x="180.00" y="174.00" width="195.50" height="62.00" fill="#8AAEA9" stroke="none" /><text x="278.75" y="211.00" text-anchor="middle" fill="#17324D" class="value">130</text><rect x="377.50" y="174.00" width="195.50" height="62.00" fill="#5B94AF" stroke="none" /><text x="476.25" y="211.00" text-anchor="middle" fill="#17324D" class="value">150</text><rect x="575.00" y="174.00" width="195.50" height="62.00" fill="#5B94AF" stroke="none" /><text x="673.75" y="211.00" text-anchor="middle" fill="#17324D" class="value">150</text><rect x="772.50" y="174.00" width="195.50" height="62.00" fill="#AEC1A4" stroke="none" /><text x="871.25" y="211.00" text-anchor="middle" fill="#17324D" class="value">115</text><rect x="180.00" y="238.00" width="195.50" height="62.00" fill="#9BB7A6" stroke="none" /><text x="278.75" y="275.00" text-anchor="middle" fill="#17324D" class="value">123</text><rect x="377.50" y="238.00" width="195.50" height="62.00" fill="#6B9DAD" stroke="none" /><text x="476.25" y="275.00" text-anchor="middle" fill="#17324D" class="value">143</text><rect x="575.00" y="238.00" width="195.50" height="62.00" fill="#73A1AC" stroke="none" /><text x="673.75" y="275.00" text-anchor="middle" fill="#17324D" class="value">140</text><rect x="772.50" y="238.00" width="195.50" height="62.00" fill="#CAD1A0" stroke="none" /><text x="871.25" y="275.00" text-anchor="middle" fill="#17324D" class="value">103</text><rect x="180.00" y="302.00" width="195.50" height="62.00" fill="#D1D59F" stroke="none" /><text x="278.75" y="339.00" text-anchor="middle" fill="#17324D" class="value">100</text><rect x="377.50" y="302.00" width="195.50" height="62.00" fill="#C5CEA1" stroke="none" /><text x="476.25" y="339.00" text-anchor="middle" fill="#17324D" class="value">105</text><rect x="575.00" y="302.00" width="195.50" height="62.00" fill="#A2BBA5" stroke="none" /><text x="673.75" y="339.00" text-anchor="middle" fill="#17324D" class="value">120</text><rect x="772.50" y="302.00" width="195.50" height="62.00" fill="#D1D59F" stroke="none" /><text x="871.25" y="339.00" text-anchor="middle" fill="#17324D" class="value">100</text><rect x="180.00" y="366.00" width="195.50" height="62.00" fill="#F3E79B" stroke="none" /><text x="278.75" y="403.00" text-anchor="middle" fill="#17324D" class="value">86</text><rect x="377.50" y="366.00" width="195.50" height="62.00" fill="#F0E59B" stroke="none" /><text x="476.25" y="403.00" text-anchor="middle" fill="#17324D" class="value">87</text><rect x="575.00" y="366.00" width="195.50" height="62.00" fill="#F3E79B" stroke="none" /><text x="673.75" y="403.00" text-anchor="middle" fill="#17324D" class="value">86</text><rect x="772.50" y="366.00" width="195.50" height="62.00" fill="#F3E79B" stroke="none" /><text x="871.25" y="403.00" text-anchor="middle" fill="#17324D" class="value">86</text><rect x="1000.00" y="403.33" width="20.00" height="26.67" fill="#F3E79B" stroke="none" /><rect x="1000.00" y="376.67" width="20.00" height="26.67" fill="#E0DD9D" stroke="none" /><rect x="1000.00" y="350.00" width="20.00" height="26.67" fill="#CED39F" stroke="none" /><rect x="1000.00" y="323.33" width="20.00" height="26.67" fill="#BCC9A2" stroke="none" /><rect x="1000.00" y="296.67" width="20.00" height="26.67" fill="#AABFA4" stroke="none" /><rect x="1000.00" y="270.00" width="20.00" height="26.67" fill="#98B5A7" stroke="none" /><rect x="1000.00" y="243.33" width="20.00" height="26.67" fill="#86ACA9" stroke="none" /><rect x="1000.00" y="216.67" width="20.00" height="26.67" fill="#74A2AC" stroke="none" /><rect x="1000.00" y="190.00" width="20.00" height="26.67" fill="#6298AE" stroke="none" /><rect x="1000.00" y="163.33" width="20.00" height="26.67" fill="#508EB1" stroke="none" /><rect x="1000.00" y="136.67" width="20.00" height="26.67" fill="#3E84B3" stroke="none" /><rect x="1000.00" y="110.00" width="20.00" height="26.67" fill="#2C7BB6" stroke="none" /><text x="1010.00" y="98.00" text-anchor="middle" fill="#17324D" class="legend">Price</text><text x="1028.00" y="114.00" text-anchor="start" fill="#17324D" class="tick">EUR 170</text><text x="1028.00" y="430.00" text-anchor="start" fill="#17324D" class="tick">EUR 86</text></svg>