<svg xmlns="http://www.w3.org/2000/svg" width="1100" height="650" viewBox="0 0 1100 650" role="img" aria-labelledby="title"><title>Median Nightly Price by Guest Capacity Band</title><style>text { font-family: Arial, Helvetica, sans-serif; fill: #17324D; }.title { font-size: 28px; font-weight: 700; }.axis-label { font-size: 16px; font-weight: 600; }.tick { font-size: 13px; }.value { font-size: 12px; font-weight: 600; }.legend { font-size: 13px; }</style><rect x="0" y="0" width="1100" height="650" fill="#FFFFFF" /><text x="550.00" y="45.00" text-anchor="middle" fill="#17324D" class="title">Median Nightly Price by Guest Capacity Band</text><text x="28.00" y="315.00" text-anchor="middle" fill="#17324D" class="axis-label" transform="rotate(-90.00 28.00 315.00)">Median nightly price</text><line x1="90.00" y1="530.00" x2="1050.00" y2="530.00" stroke="#D7DEE6" stroke-width="1.00" stroke-dasharray="4 4" /><text x="78.00" y="534.00" text-anchor="end" fill="#17324D" class="tick">EUR 0</text><line x1="90.00" y1="422.50" x2="1050.00" y2="422.50" stroke="#D7DEE6" stroke-width="1.00" stroke-dasharray="4 4" /><text x="78.00" y="426.50" text-anchor="end" fill="#17324D" class="tick">EUR 125</text><line x1="90.00" y1="315.00" x2="1050.00" y2="315.00" stroke="#D7DEE6" stroke-width="1.00" stroke-dasharray="4 4" /><text x="78.00" y="319.00" text-anchor="end" fill="#17324D" class="tick">EUR 250</text><line x1="90.00" y1="207.50" x2="1050.00" y2="207.50" stroke="#D7DEE6" stroke-width="1.00" stroke-dasharray="4 4" /><text x="78.00" y="211.50" text-anchor="end" fill="#17324D" class="tick">EUR 375</text><line x1="90.00" y1="100.00" x2="1050.00" y2="100.00" stroke="#D7DEE6" stroke-width="1.00" stroke-dasharray="4 4" /><text x="78.00" y="104.00" text-anchor="end" fill="#17324D" class="tick">EUR 500</text><line x1="90.00" y1="100.00" x2="90.00" y2="530.00" stroke="#17324D" stroke-width="1.50" /><line x1="90.00" y1="530.00" x2="1050.00" y2="530.00" stroke="#17324D" stroke-width="1.50" /><rect x="135.60" y="447.44" width="148.80" height="82.56" fill="#1F567D" stroke="none" /><text x="210.00" y="439.44" text-anchor="middle" fill="#17324D" class="value">EUR 96</text><text x="210.00" y="558.00" text-anchor="middle" fill="#17324D" class="tick">1-2 guests</text><rect x="375.60" y="426.80" width="148.80" height="103.20" fill="#1F567D" stroke="none" /><text x="450.00" y="418.80" text-anchor="middle" fill="#17324D" class="value">EUR 120</text><text x="450.00" y="558.00" text-anchor="middle" fill="#17324D" class="tick">3-4 guests</text><rect x="615.60" y="389.82" width="148.80" height="140.18" fill="#1F567D" stroke="none" /><text x="690.00" y="381.82" text-anchor="middle" fill="#17324D" class="value">EUR 163</text><text x="690.00" y="558.00" text-anchor="middle" fill="#17324D" class="tick">5-6 guests</text><rect x="855.60" y="314.14" width="148.80" height="215.86" fill="#1F567D" stroke="none" /><text x="930.00" y="306.14" text-anchor="middle" fill="#17324D" class="value">EUR 251</text><text x="930.00" y="558.00" text-anchor="middle" fill="#17324D" class="tick">7+ guests</text></svg>