<svg xmlns="http://www.w3.org/2000/svg" width="1100" height="650" viewBox="0 0 1100 650" role="img" aria-labelledby="title"><title>Median Nightly Price by Room Type</title><style>text { font-family: Arial, Helvetica, sans-serif; fill: #17324D; }.title { font-size: 28px; font-weight: 700; }.axis-label { font-size: 16px; font-weight: 600; }.tick { font-size: 13px; }.value { font-size: 12px; font-weight: 600; }.legend { font-size: 13px; }</style><rect x="0" y="0" width="1100" height="650" fill="#FFFFFF" /><text x="550.00" y="45.00" text-anchor="middle" fill="#17324D" class="title">Median Nightly Price by Room Type</text><text x="28.00" y="315.00" text-anchor="middle" fill="#17324D" class="axis-label" transform="rotate(-90.00 28.00 315.00)">Median nightly price</text><line x1="90.00" y1="530.00" x2="1050.00" y2="530.00" stroke="#D7DEE6" stroke-width="1.00" stroke-dasharray="4 4" /><text x="78.00" y="534.00" text-anchor="end" fill="#17324D" class="tick">EUR 0</text><line x1="90.00" y1="422.50" x2="1050.00" y2="422.50" stroke="#D7DEE6" stroke-width="1.00" stroke-dasharray="4 4" /><text x="78.00" y="426.50" text-anchor="end" fill="#17324D" class="tick">EUR 50</text><line x1="90.00" y1="315.00" x2="1050.00" y2="315.00" stroke="#D7DEE6" stroke-width="1.00" stroke-dasharray="4 4" /><text x="78.00" y="319.00" text-anchor="end" fill="#17324D" class="tick">EUR 100</text><line x1="90.00" y1="207.50" x2="1050.00" y2="207.50" stroke="#D7DEE6" stroke-width="1.00" stroke-dasharray="4 4" /><text x="78.00" y="211.50" text-anchor="end" fill="#17324D" class="tick">EUR 150</text><line x1="90.00" y1="100.00" x2="1050.00" y2="100.00" stroke="#D7DEE6" stroke-width="1.00" stroke-dasharray="4 4" /><text x="78.00" y="104.00" text-anchor="end" fill="#17324D" class="tick">EUR 200</text><line x1="90.00" y1="100.00" x2="90.00" y2="530.00" stroke="#17324D" stroke-width="1.50" /><line x1="90.00" y1="530.00" x2="1050.00" y2="530.00" stroke="#17324D" stroke-width="1.50" /><rect x="135.60" y="256.95" width="148.80" height="273.05" fill="#F4A261" stroke="none" /><text x="210.00" y="248.95" text-anchor="middle" fill="#17324D" class="value">EUR 127</text><text x="210.00" y="558.00" text-anchor="middle" fill="#17324D" class="tick">Entire home</text><rect x="375.60" y="336.50" width="148.80" height="193.50" fill="#F4A261" stroke="none" /><text x="450.00" y="328.50" text-anchor="middle" fill="#17324D" class="value">EUR 90</text><text x="450.00" y="558.00" text-anchor="middle" fill="#17324D" class="tick">Private room</text><rect x="615.60" y="259.10" width="148.80" height="270.90" fill="#F4A261" stroke="none" /><text x="690.00" y="251.10" text-anchor="middle" fill="#17324D" class="value">EUR 126</text><text x="690.00" y="558.00" text-anchor="middle" fill="#17324D" class="tick">Hotel room</text><rect x="855.60" y="433.25" width="148.80" height="96.75" fill="#F4A261" stroke="none" /><text x="930.00" y="425.25" text-anchor="middle" fill="#17324D" class="value">EUR 45</text><text x="930.00" y="558.00" text-anchor="middle" fill="#17324D" class="tick">Shared room</text></svg>