<svg xmlns="http://www.w3.org/2000/svg" width="1100" height="650" viewBox="0 0 1100 650" role="img" aria-labelledby="title"><title>Selected High-Price and Lower-Price Neighbourhoods</title><style>text { font-family: Arial, Helvetica, sans-serif; fill: #17324D; }.title { font-size: 28px; font-weight: 700; }.axis-label { font-size: 16px; font-weight: 600; }.tick { font-size: 13px; }.value { font-size: 12px; font-weight: 600; }.legend { font-size: 13px; }</style><rect x="0" y="0" width="1100" height="650" fill="#FFFFFF" /><text x="550.00" y="45.00" text-anchor="middle" fill="#17324D" class="title">Selected High-Price and Lower-Price Neighbourhoods</text><text x="660.00" y="632.00" text-anchor="middle" fill="#17324D" class="axis-label">Median nightly price</text><line x1="280.00" y1="100.00" x2="280.00" y2="570.00" stroke="#D7DEE6" stroke-width="1.00" stroke-dasharray="4 4" /><text x="280.00" y="594.00" text-anchor="middle" fill="#17324D" class="tick">EUR 0</text><line x1="470.00" y1="100.00" x2="470.00" y2="570.00" stroke="#D7DEE6" stroke-width="1.00" stroke-dasharray="4 4" /><text x="470.00" y="594.00" text-anchor="middle" fill="#17324D" class="tick">EUR 62</text><line x1="660.00" y1="100.00" x2="660.00" y2="570.00" stroke="#D7DEE6" stroke-width="1.00" stroke-dasharray="4 4" /><text x="660.00" y="594.00" text-anchor="middle" fill="#17324D" class="tick">EUR 125</text><line x1="850.00" y1="100.00" x2="850.00" y2="570.00" stroke="#D7DEE6" stroke-width="1.00" stroke-dasharray="4 4" /><text x="850.00" y="594.00" text-anchor="middle" fill="#17324D" class="tick">EUR 188</text><line x1="1040.00" y1="100.00" x2="1040.00" y2="570.00" stroke="#D7DEE6" stroke-width="1.00" stroke-dasharray="4 4" /><text x="1040.00" y="594.00" text-anchor="middle" fill="#17324D" class="tick">EUR 250</text><line x1="280.00" y1="100.00" x2="280.00" y2="570.00" stroke="#17324D" stroke-width="1.50" /><line x1="280.00" y1="570.00" x2="1040.00" y2="570.00" stroke="#17324D" stroke-width="1.50" /><rect x="280.00" y="109.87" width="212.80" height="27.26" fill="#6C7A89" stroke="none" /><text x="268.00" y="127.50" text-anchor="end" fill="#17324D" class="tick">Napoli / San Carlo all&#x27;Arena</text><text x="500.80" y="127.50" text-anchor="start" fill="#17324D" class="value">EUR 70</text><rect x="280.00" y="156.87" width="221.92" height="27.26" fill="#6C7A89" stroke="none" /><text x="268.00" y="174.50" text-anchor="end" fill="#17324D" class="tick">Roma / VI Roma delle Torri</text><text x="509.92" y="174.50" text-anchor="start" fill="#17324D" class="value">EUR 73</text><rect x="280.00" y="203.87" width="224.96" height="27.26" fill="#6C7A89" stroke="none" /><text x="268.00" y="221.50" text-anchor="end" fill="#17324D" class="tick">Napoli / Bagnoli</text><text x="512.96" y="221.50" text-anchor="start" fill="#17324D" class="value">EUR 74</text><rect x="280.00" y="250.87" width="224.96" height="27.26" fill="#6C7A89" stroke="none" /><text x="268.00" y="268.50" text-anchor="end" fill="#17324D" class="tick">Napoli / Stella</text><text x="512.96" y="268.50" text-anchor="start" fill="#17324D" class="value">EUR 74</text><rect x="280.00" y="297.87" width="228.00" height="27.26" fill="#6C7A89" stroke="none" /><text x="268.00" y="315.50" text-anchor="end" fill="#17324D" class="tick">Milano / BAGGIO</text><text x="516.00" y="315.50" text-anchor="start" fill="#17324D" class="value">EUR 75</text><rect x="280.00" y="344.87" width="513.76" height="27.26" fill="#E76F51" stroke="none" /><text x="268.00" y="362.50" text-anchor="end" fill="#17324D" class="tick">Venezia / Dorsoduro</text><text x="801.76" y="362.50" text-anchor="start" fill="#17324D" class="value">EUR 169</text><rect x="280.00" y="391.87" width="535.04" height="27.26" fill="#E76F51" stroke="none" /><text x="268.00" y="409.50" text-anchor="end" fill="#17324D" class="tick">Milano / BRERA</text><text x="823.04" y="409.50" text-anchor="start" fill="#17324D" class="value">EUR 176</text><rect x="280.00" y="438.87" width="548.72" height="27.26" fill="#E76F51" stroke="none" /><text x="268.00" y="456.50" text-anchor="end" fill="#17324D" class="tick">Venezia / San Polo</text><text x="836.72" y="456.50" text-anchor="start" fill="#17324D" class="value">EUR 180</text><rect x="280.00" y="485.87" width="577.60" height="27.26" fill="#E76F51" stroke="none" /><text x="268.00" y="503.50" text-anchor="end" fill="#17324D" class="tick">Milano / DUOMO</text><text x="865.60" y="503.50" text-anchor="start" fill="#17324D" class="value">EUR 190</text><rect x="280.00" y="532.87" width="641.44" height="27.26" fill="#E76F51" stroke="none" /><text x="268.00" y="550.50" text-anchor="end" fill="#17324D" class="tick">Venezia / San Marco</text><text x="929.44" y="550.50" text-anchor="start" fill="#17324D" class="value">EUR 211</text></svg>