<svg xmlns="http://www.w3.org/2000/svg" width="1100" height="650" viewBox="0 0 1100 650" role="img" aria-labelledby="title"><title>Nightly Price Distribution (Clipped at 99th Percentile)</title><style>text { font-family: Arial, Helvetica, sans-serif; fill: #17324D; }.title { font-size: 28px; font-weight: 700; }.axis-label { font-size: 16px; font-weight: 600; }.tick { font-size: 13px; }.value { font-size: 12px; font-weight: 600; }.legend { font-size: 13px; }</style><rect x="0" y="0" width="1100" height="650" fill="#FFFFFF" /><text x="550.00" y="45.00" text-anchor="middle" fill="#17324D" class="title">Nightly Price Distribution (Clipped at 99th Percentile)</text><text x="28.00" y="330.00" text-anchor="middle" fill="#17324D" class="axis-label" transform="rotate(-90.00 28.00 330.00)">Listing snapshot rows</text><text x="570.00" y="632.00" text-anchor="middle" fill="#17324D" class="axis-label">Nightly price</text><line x1="90.00" y1="560.00" x2="1050.00" y2="560.00" stroke="#D7DEE6" stroke-width="1.00" stroke-dasharray="4 4" /><text x="78.00" y="564.00" text-anchor="end" fill="#17324D" class="tick">0</text><line x1="90.00" y1="445.00" x2="1050.00" y2="445.00" stroke="#D7DEE6" stroke-width="1.00" stroke-dasharray="4 4" /><text x="78.00" y="449.00" text-anchor="end" fill="#17324D" class="tick">14,857</text><line x1="90.00" y1="330.00" x2="1050.00" y2="330.00" stroke="#D7DEE6" stroke-width="1.00" stroke-dasharray="4 4" /><text x="78.00" y="334.00" text-anchor="end" fill="#17324D" class="tick">29,714</text><line x1="90.00" y1="215.00" x2="1050.00" y2="215.00" stroke="#D7DEE6" stroke-width="1.00" stroke-dasharray="4 4" /><text x="78.00" y="219.00" text-anchor="end" fill="#17324D" class="tick">44,571</text><line x1="90.00" y1="100.00" x2="1050.00" y2="100.00" stroke="#D7DEE6" stroke-width="1.00" stroke-dasharray="4 4" /><text x="78.00" y="104.00" text-anchor="end" fill="#17324D" class="tick">59,427</text><text x="90.00" y="584.00" text-anchor="middle" fill="#17324D" class="tick">EUR 0</text><text x="330.00" y="584.00" text-anchor="middle" fill="#17324D" class="tick">EUR 225</text><text x="570.00" y="584.00" text-anchor="middle" fill="#17324D" class="tick">EUR 450</text><text x="810.00" y="584.00" text-anchor="middle" fill="#17324D" class="tick">EUR 675</text><text x="1050.00" y="584.00" text-anchor="middle" fill="#17324D" class="tick">EUR 900</text><line x1="90.00" y1="100.00" x2="90.00" y2="560.00" stroke="#17324D" stroke-width="1.50" /><line x1="90.00" y1="560.00" x2="1050.00" y2="560.00" stroke="#17324D" stroke-width="1.50" /><rect x="90.00" y="546.45" width="23.00" height="13.55" fill="#1F567D" stroke="none" /><rect x="114.00" y="462.95" width="23.00" height="97.05" fill="#1F567D" stroke="none" /><rect x="138.00" y="307.05" width="23.00" height="252.95" fill="#1F567D" stroke="none" /><rect x="162.00" y="160.00" width="23.00" height="400.00" fill="#1F567D" stroke="none" /><rect x="186.00" y="233.25" width="23.00" height="326.75" fill="#1F567D" stroke="none" /><rect x="210.00" y="301.88" width="23.00" height="258.12" fill="#1F567D" stroke="none" /><rect x="234.00" y="329.92" width="23.00" height="230.08" fill="#1F567D" stroke="none" /><rect x="258.00" y="431.00" width="23.00" height="129.00" fill="#1F567D" stroke="none" /><rect x="282.00" y="459.61" width="23.00" height="100.39" fill="#1F567D" stroke="none" /><rect x="306.00" y="493.52" width="23.00" height="66.48" fill="#1F567D" stroke="none" /><rect x="330.00" y="501.25" width="23.00" height="58.75" fill="#1F567D" stroke="none" /><rect x="354.00" y="525.09" width="23.00" height="34.91" fill="#1F567D" stroke="none" /><rect x="378.00" y="529.36" width="23.00" height="30.64" fill="#1F567D" stroke="none" /><rect x="402.00" y="529.08" width="23.00" height="30.92" fill="#1F567D" stroke="none" /><rect x="426.00" y="543.16" width="23.00" height="16.84" fill="#1F567D" stroke="none" /><rect x="450.00" y="541.26" width="23.00" height="18.74" fill="#1F567D" stroke="none" /><rect x="474.00" y="547.88" width="23.00" height="12.12" fill="#1F567D" stroke="none" /><rect x="498.00" y="545.39" width="23.00" height="14.61" fill="#1F567D" stroke="none" /><rect x="522.00" y="551.83" width="23.00" height="8.17" fill="#1F567D" stroke="none" /><rect x="546.00" y="551.97" width="23.00" height="8.03" fill="#1F567D" stroke="none" /><rect x="570.00" y="554.29" width="23.00" height="5.71" fill="#1F567D" stroke="none" /><rect x="594.00" y="555.30" width="23.00" height="4.70" fill="#1F567D" stroke="none" /><rect x="618.00" y="550.75" width="23.00" height="9.25" fill="#1F567D" stroke="none" /><rect x="642.00" y="556.25" width="23.00" height="3.75" fill="#1F567D" stroke="none" /><rect x="666.00" y="556.65" width="23.00" height="3.35" fill="#1F567D" stroke="none" /><rect x="690.00" y="557.30" width="23.00" height="2.70" fill="#1F567D" stroke="none" /><rect x="714.00" y="555.56" width="23.00" height="4.44" fill="#1F567D" stroke="none" /><rect x="738.00" y="558.23" width="23.00" height="1.77" fill="#1F567D" stroke="none" /><rect x="762.00" y="557.58" width="23.00" height="2.42" fill="#1F567D" stroke="none" /><rect x="786.00" y="558.33" width="23.00" height="1.67" fill="#1F567D" stroke="none" /><rect x="810.00" y="558.13" width="23.00" height="1.87" fill="#1F567D" stroke="none" /><rect x="834.00" y="557.78" width="23.00" height="2.22" fill="#1F567D" stroke="none" /><rect x="858.00" y="558.93" width="23.00" height="1.07" fill="#1F567D" stroke="none" /><rect x="882.00" y="558.35" width="23.00" height="1.65" fill="#1F567D" stroke="none" /><rect x="906.00" y="559.06" width="23.00" height="0.94" fill="#1F567D" stroke="none" /><rect x="930.00" y="557.89" width="23.00" height="2.11" fill="#1F567D" stroke="none" /><rect x="954.00" y="559.14" width="23.00" height="0.86" fill="#1F567D" stroke="none" /><rect x="978.00" y="559.05" width="23.00" height="0.95" fill="#1F567D" stroke="none" /><rect x="1002.00" y="559.43" width="23.00" height="0.57" fill="#1F567D" stroke="none" /><rect x="1026.00" y="536.92" width="23.00" height="23.08" fill="#1F567D" stroke="none" /></svg>