<svg xmlns="http://www.w3.org/2000/svg" width="1100" height="650" viewBox="0 0 1100 650" role="img" aria-labelledby="title"><title>Room Type Composition</title><style>text { font-family: Arial, Helvetica, sans-serif; fill: #17324D; }.title { font-size: 28px; font-weight: 700; }.axis-label { font-size: 16px; font-weight: 600; }.tick { font-size: 13px; }.value { font-size: 12px; font-weight: 600; }.legend { font-size: 13px; }</style><rect x="0" y="0" width="1100" height="650" fill="#FFFFFF" /><text x="550.00" y="45.00" text-anchor="middle" fill="#17324D" class="title">Room Type Composition</text><text x="610.00" y="632.00" text-anchor="middle" fill="#17324D" class="axis-label">Share of listing snapshot rows (%)</text><line x1="180.00" y1="100.00" x2="180.00" y2="570.00" stroke="#D7DEE6" stroke-width="1.00" stroke-dasharray="4 4" /><text x="180.00" y="594.00" text-anchor="middle" fill="#17324D" class="tick">0%</text><line x1="395.00" y1="100.00" x2="395.00" y2="570.00" stroke="#D7DEE6" stroke-width="1.00" stroke-dasharray="4 4" /><text x="395.00" y="594.00" text-anchor="middle" fill="#17324D" class="tick">25%</text><line x1="610.00" y1="100.00" x2="610.00" y2="570.00" stroke="#D7DEE6" stroke-width="1.00" stroke-dasharray="4 4" /><text x="610.00" y="594.00" text-anchor="middle" fill="#17324D" class="tick">50%</text><line x1="825.00" y1="100.00" x2="825.00" y2="570.00" stroke="#D7DEE6" stroke-width="1.00" stroke-dasharray="4 4" /><text x="825.00" y="594.00" text-anchor="middle" fill="#17324D" class="tick">75%</text><line x1="1040.00" y1="100.00" x2="1040.00" y2="570.00" stroke="#D7DEE6" stroke-width="1.00" stroke-dasharray="4 4" /><text x="1040.00" y="594.00" text-anchor="middle" fill="#17324D" class="tick">100%</text><line x1="180.00" y1="100.00" x2="180.00" y2="570.00" stroke="#17324D" stroke-width="1.50" /><line x1="180.00" y1="570.00" x2="1040.00" y2="570.00" stroke="#17324D" stroke-width="1.50" /><rect x="180.00" y="124.68" width="681.02" height="68.15" fill="#1F567D" stroke="none" /><text x="168.00" y="162.75" text-anchor="end" fill="#17324D" class="tick">Entire home</text><text x="869.02" y="162.75" text-anchor="start" fill="#17324D" class="value">79.2%</text><rect x="180.00" y="242.18" width="166.55" height="68.15" fill="#2A9D8F" stroke="none" /><text x="168.00" y="280.25" text-anchor="end" fill="#17324D" class="tick">Private room</text><text x="354.55" y="280.25" text-anchor="start" fill="#17324D" class="value">19.4%</text><rect x="180.00" y="359.68" width="8.43" height="68.15" fill="#F4A261" stroke="none" /><text x="168.00" y="397.75" text-anchor="end" fill="#17324D" class="tick">Hotel room</text><text x="196.43" y="397.75" text-anchor="start" fill="#17324D" class="value">1.0%</text><rect x="180.00" y="477.18" width="4.01" height="68.15" fill="#E76F51" stroke="none" /><text x="168.00" y="515.25" text-anchor="end" fill="#17324D" class="tick">Shared room</text><text x="192.01" y="515.25" text-anchor="start" fill="#17324D" class="value">0.5%</text></svg>